<?xml version="1.0" encoding="UTF-8"?>
<svg width="85px" height="30px" viewBox="0 0 85 30" version="1.1" xmlns="http://www.w3.org/2000/svg" xmlns:xlink="http://www.w3.org/1999/xlink">
    <title>Logo</title>
    <g id="Page-1" stroke="none" stroke-width="1" fill="none" fill-rule="evenodd">
        <g id="Probejob-Hiemer" transform="translate(-44.000000, -37.000000)" fill="#000000" fill-rule="nonzero">
            <g id="Logo_NIKE" transform="translate(44.000000, 37.000000)">
                <path d="M9.37613604,29.9878055 C6.84348685,29.8881683 4.77139818,29.2018738 3.15119658,27.9272041 C2.84198787,27.6836941 2.10517777,26.9535936 1.85798427,26.645663 C1.20096997,25.8275209 0.754286979,25.0312819 0.456353761,24.1478602 C-0.460430552,21.4284505 0.0114054616,17.8599768 1.80594353,13.9436317 C3.34244629,10.5907524 5.71333552,7.2653592 9.84970674,2.65971328 C10.459017,1.9820082 12.2735041,0 12.2852132,0 C12.28955,0 12.1906726,0.169641005 12.0662085,0.376216507 C10.9906999,2.16023862 10.0704462,4.26163973 9.56912044,6.08087846 C8.76379004,9 8.86093275,11.5050959 9.8536098,13.4475928 C10.5383792,14.7858241 11.7123314,15.9449661 13.0324315,16.5857366 C15.3434739,17.7070852 18.7269891,17.7998509 22.8590236,16.8571623 C23.1435129,16.7918827 37.2404812,13.0859783 54.1858124,8.6216283 C71.1311437,4.15684883 84.9978316,0.506775661 85,0.509781957 C85.0047704,0.513647195 45.6311826,17.1985916 25.1917496,25.8545776 C21.9548158,27.2250192 21.0892049,27.5711728 19.567447,28.1002809 C15.6774019,29.4531142 12.1928409,30.098609 9.37613604,29.9878055 Z" id="Path"></path>
            </g>
        </g>
    </g>
</svg>